<svg xmlns="http://www.w3.org/2000/svg" width="35.705" height="31.334" viewBox="0 0 35.705 31.334">
  <g id="add_service_icon" transform="translate(-693.783 -87.469)">
    <path id="Path_1254" data-name="Path 1254" d="M763.662,96.49a9.081,9.081,0,1,1-9.128-9.021A9.039,9.039,0,0,1,763.662,96.49Zm-2.468.165a6.614,6.614,0,1,0-6.564,6.525A6.627,6.627,0,0,0,761.194,96.655Z" transform="translate(-47.176)" fill="#fff"/>
    <path id="Path_1255" data-name="Path 1255" d="M693.786,333.022a1.192,1.192,0,0,1,.2-.636,15.132,15.132,0,0,1,3.305-4.307,15.086,15.086,0,0,1,23.776,4.763,1.262,1.262,0,0,1-.533,1.756,1.239,1.239,0,0,1-1.7-.678,12.482,12.482,0,0,0-5.292-5.68,12.336,12.336,0,0,0-5.1-1.543,12.584,12.584,0,0,0-10.9,4.715,14.232,14.232,0,0,0-1.44,2.256,1.207,1.207,0,0,1-1.34.589A1.253,1.253,0,0,1,693.786,333.022Z" transform="translate(0 -215.922)" fill="#fff"/>
    <path id="Path_1256" data-name="Path 1256" d="M981.164,242.862c0,.495,0,.989,0,1.484a1.078,1.078,0,0,1-1.069,1.195,1.125,1.125,0,0,1-1.094-1.19c-.01-1,0-2,0-3,0-.417-.007-.426-.422-.427-.969,0-1.938,0-2.907,0a1,1,0,0,1-1.1-1,1.022,1.022,0,0,1,1.082-1.092c.99-.01,1.98-.011,2.97,0,.289,0,.386-.092.381-.382-.015-.926-.006-1.852-.007-2.779,0-.116,0-.232,0-.347a1.079,1.079,0,1,1,2.158.016c.013.81,0,1.621,0,2.431,0,.232.012.464,0,.695-.017.277.1.368.374.365.99-.01,1.98-.014,2.97,0a1.054,1.054,0,0,1,.992,1.557,1.009,1.009,0,0,1-1,.533c-.969.007-1.938,0-2.907,0-.42,0-.426.007-.427.421Q981.163,242.1,981.164,242.862Z" transform="translate(-256.137 -133.872)" fill="#fff"/>
  </g>
</svg>
