<svg xmlns="http://www.w3.org/2000/svg" width="111.622" height="104.454" viewBox="0 0 111.622 104.454">
  <g id="arrow_cu" transform="translate(2.5 103.655) rotate(-90)">
    <g id="arrow" transform="translate(0 85.314)">
      <g id="Group_3100" data-name="Group 3100" transform="translate(0 0)">
        <path id="Path_1257" data-name="Path 1257" d="M34.416,142.545l0,0-10.033-9.984a1.92,1.92,0,0,0-2.709,2.722l6.736,6.7H-66.755a1.92,1.92,0,0,0-1.92,1.92,1.92,1.92,0,0,0,1.92,1.92H28.409l-6.736,6.7a1.92,1.92,0,0,0,2.709,2.722l10.033-9.984,0,0A1.922,1.922,0,0,0,34.416,142.545Z" transform="translate(68.675 -132)"/>
      </g>
    </g>
    <line id="Line_38" data-name="Line 38" x2="96.821" transform="translate(1.701 0) rotate(90)" fill="none" stroke="#000" stroke-linecap="round" stroke-width="5"/>
  </g>
</svg>
