<svg xmlns="http://www.w3.org/2000/svg" width="22.031" height="19.787" viewBox="0 0 22.031 19.787">
  <g id="book-outline" transform="translate(-31 -63)">
    <path id="Path_236" data-name="Path 236" d="M42.015,68.292c.715-2.824,3.417-4.266,9.3-4.292a.713.713,0,0,1,.715.715V77.592a.715.715,0,0,1-.715.715c-5.723,0-7.934,1.154-9.3,2.862-1.358-1.7-3.577-2.862-9.3-2.862a.734.734,0,0,1-.715-.8V64.715A.713.713,0,0,1,32.715,64C38.6,64.026,41.3,65.468,42.015,68.292Z" transform="translate(0 0)" fill="none" stroke="#333" stroke-linecap="round" stroke-linejoin="round" stroke-width="2"/>
    <line id="Line_10" data-name="Line 10" y2="13" transform="translate(42.015 68.787)" fill="none" stroke="#333" stroke-linecap="round" stroke-linejoin="round" stroke-width="2"/>
  </g>
</svg>
