<svg id="delete_icon" xmlns="http://www.w3.org/2000/svg" width="13.954" height="24.791" viewBox="0 0 13.954 24.791">
  <path id="Path_1248" data-name="Path 1248" d="M24.589,12.335H13.872a1.627,1.627,0,0,0-1.619,1.634l.731,16.083A1.621,1.621,0,0,0,14.6,31.671h9.254a1.615,1.615,0,0,0,1.619-1.605l.731-16.112A1.621,1.621,0,0,0,24.589,12.335Zm-.733,17.738-9.274-.034-.731-16.084a.021.021,0,0,1,.021-.02l10.737.006Z" transform="translate(-12.253 -6.88)" fill="#fc00c5"/>
  <path id="Path_1249" data-name="Path 1249" d="M26.969,33.6a.859.859,0,0,0,.858-.857v-11.6a.857.857,0,0,0-1.715,0v11.6A.859.859,0,0,0,26.969,33.6Z" transform="translate(-19.983 -11.319)" fill="#fc00c5"/>
  <path id="Path_1250" data-name="Path 1250" d="M34,33.6h.009a.86.86,0,0,0,.858-.848L35,21.16a.849.849,0,0,0-.245-.609.857.857,0,0,0-1.471.589l-.133,11.595A.86.86,0,0,0,34,33.6Z" transform="translate(-23.909 -11.319)" fill="#fc00c5"/>
  <path id="Path_1251" data-name="Path 1251" d="M19.722,33.6h.009a.859.859,0,0,0,.848-.868L20.447,21.14a.863.863,0,0,0-.867-.848.857.857,0,0,0-.848.868l.132,11.595A.861.861,0,0,0,19.722,33.6Z" transform="translate(-15.867 -11.319)" fill="#fc00c5"/>
  <path id="Path_1252" data-name="Path 1252" d="M13.729,8.084l11.978-.691a.767.767,0,0,0,.535-.259.759.759,0,0,0,.194-.56.774.774,0,0,0-.774-.731l-11.978.691a.775.775,0,0,0-.728.819A.774.774,0,0,0,13.729,8.084Zm0-.227h0v0Z" transform="translate(-12.644 -3.26)" fill="#fc00c5"/>
  <path id="Path_1253" data-name="Path 1253" d="M22.831,2.783h.046a.8.8,0,0,0,.752-.845l.009-.217,2.137-.1.011.195a.8.8,0,0,0,.8.754h.047a.8.8,0,0,0,.752-.845l-.011-.194A1.625,1.625,0,0,0,25.663,0L23.546.124a1.619,1.619,0,0,0-1.523,1.71l.011.2A.8.8,0,0,0,22.831,2.783Zm0-.226h0v0Z" transform="translate(-17.701 0)" fill="#fc00c5"/>
</svg>
