<svg xmlns="http://www.w3.org/2000/svg" width="33.299" height="31.65" viewBox="0 0 33.299 31.65">
  <g id="home-run" transform="translate(0 -12.675)">
    <g id="Group_3113" data-name="Group 3113" transform="translate(0 12.675)">
      <g id="Group_3112" data-name="Group 3112" transform="translate(0)">
        <path id="Path_1258" data-name="Path 1258" d="M32.74,26.737,17.8,13.124a1.7,1.7,0,0,0-2.3,0L.559,26.737a1.708,1.708,0,0,0,1.15,2.97H4.1v13.64a.979.979,0,0,0,.979.979h8.189a.979.979,0,0,0,.979-.979V35.065h4.813v8.282a.979.979,0,0,0,.979.979h8.189a.979.979,0,0,0,.979-.979V29.707H31.59a1.707,1.707,0,0,0,1.15-2.97Z" transform="translate(0 -12.675)"/>
      </g>
    </g>
    <g id="Group_3115" data-name="Group 3115" transform="translate(22.371 14.63)">
      <g id="Group_3114" data-name="Group 3114">
        <path id="Path_1259" data-name="Path 1259" d="M350.549,42.73h-6.577l7.556,6.87V43.709A.979.979,0,0,0,350.549,42.73Z" transform="translate(-343.973 -42.73)"/>
      </g>
    </g>
  </g>
</svg>
