<svg xmlns="http://www.w3.org/2000/svg" width="23.063" height="23.723" viewBox="0 0 23.063 23.723">
  <path id="settings_icon" d="M22.576,15.018a9.677,9.677,0,0,0,.074-1.156,7.313,7.313,0,0,0-.089-1.156l2.506-1.957a.613.613,0,0,0,.148-.756L22.843,5.885a.6.6,0,0,0-.727-.267L19.166,6.8a8.686,8.686,0,0,0-2-1.156L16.719,2.5a.592.592,0,0,0-.593-.5H11.382a.577.577,0,0,0-.578.5l-.445,3.143a8.919,8.919,0,0,0-2,1.156L5.407,5.618a.586.586,0,0,0-.727.267L2.308,9.992a.575.575,0,0,0,.148.756L4.962,12.7a6.987,6.987,0,0,0-.015,2.313L2.441,16.975a.613.613,0,0,0-.148.756l2.372,4.107a.6.6,0,0,0,.727.267l2.95-1.186a8.687,8.687,0,0,0,2,1.156l.445,3.143a.6.6,0,0,0,.593.5h4.745a.567.567,0,0,0,.578-.5l.445-3.143a8.919,8.919,0,0,0,2-1.156L22.1,22.1a.586.586,0,0,0,.727-.267L25.2,17.731a.575.575,0,0,0-.148-.756l-2.476-1.957Zm-8.822,3.292A4.448,4.448,0,1,1,18.2,13.861,4.461,4.461,0,0,1,13.754,18.309Z" transform="translate(-2.222 -2)" fill="#d3d3d3"/>
</svg>
